<?xml version="1.0" encoding="utf-8"?>
<!-- Generator: Adobe Illustrator 21.0.0, SVG Export Plug-In . SVG Version: 6.00 Build 0)  -->
<svg version="1.1" id="图层_1" xmlns="http://www.w3.org/2000/svg" xmlns:xlink="http://www.w3.org/1999/xlink" x="0px" y="0px"
	 viewBox="0 0 200 200" style="enable-background:new 0 0 200 200;" xml:space="preserve">
<style type="text/css">
	.st0{fill:#AB292C;}
</style>
<path class="st0" d="M100,15.5c-38.2,0-69.1,30.4-69.1,67.8c0,43.3,45,101.1,69.1,101.1s69.1-57.8,69.1-101.1
	C169.1,45.9,138.2,15.5,100,15.5z M100,169.1c-4.1,0-18.1-11.2-29.8-26.2c-14.7-19-23.9-40.3-23.9-59.5c0-28.9,23.9-52.3,53.8-52.3
	c29.9,0,53.8,23.6,53.8,52.3c0,19.2-9.2,40.5-23.9,59.5C118.1,157.9,104.1,169.1,100,169.1z"/>
<path class="st0" d="M100,100c8.5,0,15.3-6.8,15.3-15.3s-6.8-15.3-15.3-15.3s-15.3,6.8-15.3,15.3S91.5,100,100,100z"/>
</svg>
