<?xml version="1.0" encoding="utf-8"?>
<!-- Generator: Adobe Illustrator 21.0.0, SVG Export Plug-In . SVG Version: 6.00 Build 0)  -->
<svg version="1.1" id="图层_1" xmlns="http://www.w3.org/2000/svg" xmlns:xlink="http://www.w3.org/1999/xlink" x="0px" y="0px"
	 viewBox="0 0 1927.6 1927.6" style="enable-background:new 0 0 1927.6 1927.6;" xml:space="preserve">
<style type="text/css">
	.st0{fill:#7E7E7E;}
</style>
<path class="st0" d="M1325,1294.9l-184.3-181.8c48.6-53.8,76.8-125.4,76.8-204.8c0-174.1-140.8-312.3-312.3-312.3
	c-174.1,0-312.3,140.8-312.3,312.3c0,174.1,140.8,312.3,312.3,312.3c79.4,0,151-28.2,204.8-76.8l184.3,181.8c7.7,7.7,23,7.7,30.7,0
	C1335.3,1315.4,1335.3,1302.6,1325,1294.9L1325,1294.9z M633.8,908.4c0-148.5,120.3-271.4,271.4-271.4s271.4,120.3,271.4,271.4
	c0,71.7-28.2,138.2-74.2,186.9c-2.6,0-2.6,2.6-5.1,2.6c-2.6,2.6-2.6,2.6-2.6,5.1c-48.6,46.1-115.2,74.2-186.9,74.2
	C756.7,1179.7,633.8,1056.8,633.8,908.4L633.8,908.4z M633.8,908.4"/>
</svg>
